<svg width="24" height="24" viewBox="0 0 24 24" fill="none" xmlns="http://www.w3.org/2000/svg">
  <path d="M3 3H5.25L7.375 12.375C7.45833 12.7917 7.70833 13.125 8.125 13.375H18.75C19.1667 13.375 19.5 13.125 19.6667 12.7083L21.75 5.5H5.25" stroke="#4B5563" stroke-width="2" stroke-linecap="round" stroke-linejoin="round"/>
  <path d="M12 21C12.5523 21 13 20.5523 13 20C13 19.4477 12.5523 19 12 19C11.4477 19 11 19.4477 11 20C11 20.5523 11.4477 21 12 21Z" stroke="#4B5563" stroke-width="2" stroke-linecap="round" stroke-linejoin="round"/>
  <path d="M18 21C18.5523 21 19 20.5523 19 20C19 19.4477 18.5523 19 18 19C17.4477 19 17 19.4477 17 20C17 20.5523 17.4477 21 18 21Z" stroke="#4B5563" stroke-width="2" stroke-linecap="round" stroke-linejoin="round"/>
</svg>