<svg width="24" height="24" viewBox="0 0 24 24" fill="none" xmlns="http://www.w3.org/2000/svg">
  <path d="M14 2H6C5.44772 2 5 2.44772 5 3V17C5 17.5523 5.44772 18 6 18H14C14.5523 18 15 17.5523 15 17V3C15 2.44772 14.5523 2 14 2Z" fill="#3B82F6" stroke="#3B82F6" stroke-width="1.5" stroke-linecap="round" stroke-linejoin="round"/>
  <path d="M19 6H11C10.4477 6 10 6.44772 10 7V21C10 21.5523 10.4477 22 11 22H19C19.5523 22 20 21.5523 20 21V7C20 6.44772 19.5523 6 19 6Z" fill="#2563EB" stroke="#2563EB" stroke-width="1.5" stroke-linecap="round" stroke-linejoin="round"/>
</svg>