<svg width="24" height="24" viewBox="0 0 24 24" fill="none" xmlns="http://www.w3.org/2000/svg">
  <path d="M3 19C3 18.2044 3.31607 17.4413 3.87868 16.8787C4.44129 16.3161 5.20435 16 6 16C6.79565 16 7.55871 16.3161 8.12132 16.8787C8.68393 17.4413 9 18.2044 9 19C9 19.7957 8.68393 20.5587 8.12132 21.1213C7.55871 21.6839 6.79565 22 6 22C5.20435 22 4.44129 21.6839 3.87868 21.1213C3.31607 20.5587 3 19.7957 3 19Z" stroke="#4B5563" stroke-width="2" stroke-linecap="round" stroke-linejoin="round"/>
  <path d="M15 19C15 18.2044 15.3161 17.4413 15.8787 16.8787C16.4413 16.3161 17.2044 16 18 16C18.7957 16 19.5587 16.3161 20.1213 16.8787C20.6839 17.4413 21 18.2044 21 19C21 19.7957 20.6839 20.5587 20.1213 21.1213C19.5587 21.6839 18.7957 22 18 22C17.2044 22 16.4413 21.6839 15.8787 21.1213C15.3161 20.5587 15 19.7957 15 19Z" stroke="#4B5563" stroke-width="2" stroke-linecap="round" stroke-linejoin="round"/>
  <path d="M3 19C3 12.3735 7.64771 7 14 7" stroke="#4B5563" stroke-width="2" stroke-linecap="round" stroke-linejoin="round"/>
  <path d="M21 19C21 12.3735 16.3523 7 10 7" stroke="#4B5563" stroke-width="2" stroke-linecap="round" stroke-linejoin="round"/>
  <path d="M12 7V3" stroke="#4B5563" stroke-width="2" stroke-linecap="round" stroke-linejoin="round"/>
</svg>